<!-- Generated by IcoMoon.io -->
<svg version="1.1" xmlns="http://www.w3.org/2000/svg" width="32" height="32" viewBox="0 0 32 32">
<title>amazonwebservices-plain-wordmark</title>
<path fill="#f7a80d" d="M11.159 14.34c-0.65 0-1.375 0.25-1.527 1.074-0.016 0.088 0.042 0.129 0.098 0.142l0.666 0.080c0.062-0.004 0.104-0.070 0.115-0.133 0.057-0.284 0.29-0.417 0.55-0.417 0.141 0 0.298 0.048 0.382 0.178 0.095 0.144 0.088 0.34 0.088 0.506v0.098c-0.396 0.046-0.916 0.073-1.287 0.239-0.427 0.19-0.728 0.577-0.728 1.145 0 0.728 0.446 1.091 1.021 1.091 0.485 0 0.753-0.114 1.127-0.506 0.124 0.184 0.164 0.268 0.39 0.462 0.050 0.027 0.114 0.024 0.16-0.018v0.009c0.136-0.124 0.384-0.35 0.524-0.47 0.056-0.047 0.043-0.123 0-0.186-0.125-0.177-0.257-0.319-0.257-0.648v-1.091c0-0.463 0.039-0.889-0.293-1.207-0.261-0.258-0.698-0.346-1.030-0.346zM20.105 14.34c-0.65 0-1.375 0.25-1.526 1.074-0.016 0.088 0.041 0.129 0.098 0.142l0.666 0.080c0.061-0.004 0.104-0.070 0.115-0.133 0.057-0.284 0.29-0.417 0.55-0.417 0.141 0 0.298 0.048 0.381 0.178 0.095 0.144 0.080 0.34 0.080 0.506v0.098c-0.395 0.046-0.907 0.073-1.278 0.239-0.428 0.19-0.727 0.577-0.727 1.145 0 0.728 0.446 1.091 1.020 1.091 0.485 0 0.753-0.114 1.127-0.506 0.124 0.184 0.164 0.268 0.391 0.462 0.051 0.027 0.114 0.024 0.16-0.018v0.009c0.137-0.124 0.384-0.35 0.524-0.47 0.055-0.047 0.043-0.123 0-0.186-0.125-0.177-0.258-0.319-0.258-0.648v-1.091c0-0.463 0.030-0.889-0.302-1.207-0.262-0.258-0.69-0.346-1.021-0.346zM15.072 14.376c-0.42 0-0.731 0.212-0.896 0.666h-0.009v-0.47c-0.005-0.066-0.057-0.121-0.124-0.124h-0.639c-0.072 0-0.133 0.061-0.133 0.133v3.595c0.005 0.064 0.059 0.12 0.124 0.124h0.683c0.073 0 0.133-0.061 0.133-0.133v-1.908c0-0.416-0.020-0.985 0.47-0.985 0.484 0 0.417 0.585 0.417 0.985v1.908c0 0.068 0.056 0.129 0.124 0.133h0.683c0.072 0 0.133-0.061 0.133-0.133v-1.908c0-0.204-0.008-0.502 0.062-0.683s0.243-0.302 0.409-0.302c0.197 0 0.349 0.069 0.399 0.31 0.032 0.144 0.018 0.524 0.018 0.675v1.908c0 0.068 0.055 0.129 0.124 0.133h0.683c0.073 0 0.133-0.061 0.133-0.133v-2.272c0-0.386 0.038-0.825-0.177-1.127-0.191-0.272-0.504-0.391-0.79-0.391-0.401 0-0.775 0.212-0.941 0.666-0.191-0.454-0.46-0.665-0.887-0.665zM26.691 14.376c-0.987 0-1.535 0.868-1.535 1.988 0 1.112 0.542 2.006 1.535 2.006 0.956 0 1.562-0.873 1.562-1.97 0-1.134-0.549-2.024-1.562-2.024zM30.587 14.376c-0.472 0-0.741 0.236-0.932 0.728h-0.009v-0.55c-0.012-0.056-0.064-0.094-0.124-0.098h-0.63c-0.069 0-0.127 0.050-0.133 0.115v3.595c0 0.068 0.056 0.129 0.124 0.133h0.675c0.072 0 0.132-0.061 0.133-0.133v-1.935c0-0.242 0.021-0.464 0.116-0.683 0.076-0.174 0.225-0.284 0.39-0.284 0.471 0 0.426 0.574 0.426 0.967v1.953c0.007 0.061 0.062 0.111 0.125 0.116h0.683c0.067 0 0.125-0.051 0.133-0.116v-2.263c0-0.348 0.001-0.831-0.177-1.119-0.191-0.31-0.494-0.426-0.799-0.426zM22.386 14.438c-0.070 0-0.124 0.055-0.125 0.133v0.515c0 0.078 0.053 0.133 0.125 0.133h1.171l-1.34 1.979c-0.081 0.128-0.088 0.272-0.088 0.355v0.524c0 0.076 0.082 0.157 0.16 0.115 0.764-0.417 1.679-0.38 2.37-0.009 0.084 0.046 0.169-0.040 0.169-0.116v-0.55c-0.006-0.073-0.035-0.144-0.124-0.195-0.392-0.225-0.847-0.294-1.278-0.284l1.163-1.704c0.108-0.153 0.168-0.245 0.169-0.32v-0.444c0-0.076-0.052-0.133-0.124-0.133h-2.246zM26.691 15.113c0.216 0 0.376 0.097 0.453 0.346 0.088 0.288 0.098 0.647 0.098 0.95 0 0.462-0.021 1.225-0.55 1.225-0.535 0-0.532-0.945-0.532-1.384-0-0.438 0.029-1.136 0.532-1.136zM11.522 16.426v0.151c0 0.273 0.010 0.503-0.124 0.745-0.108 0.198-0.279 0.32-0.47 0.32-0.261 0-0.417-0.212-0.417-0.515-0-0.597 0.518-0.701 1.011-0.701zM20.469 16.426v0.151c0 0.273 0.010 0.503-0.124 0.745-0.109 0.198-0.278 0.32-0.471 0.32-0.262 0-0.417-0.212-0.417-0.515 0-0.597 0.518-0.701 1.012-0.701zM24.898 18.414v0.515h0.346v-0.515h-0.346zM14.86 18.503v3.666h0.319v-0.328c0.068 0.13 0.146 0.227 0.239 0.293s0.201 0.098 0.319 0.098c0.235 0 0.437-0.12 0.612-0.364s0.266-0.598 0.266-1.047c0-0.294-0.038-0.538-0.116-0.745s-0.181-0.36-0.311-0.462c-0.13-0.102-0.277-0.16-0.435-0.16-0.113 0-0.219 0.029-0.311 0.088s-0.166 0.155-0.239 0.275v-1.314h-0.346zM18.143 19.364c-0.241 0-0.432 0.071-0.568 0.213s-0.204 0.324-0.204 0.55c0 0.131 0.029 0.243 0.079 0.346s0.122 0.187 0.213 0.248c0.091 0.061 0.273 0.142 0.541 0.231 0.186 0.060 0.297 0.111 0.346 0.151 0.070 0.058 0.107 0.134 0.107 0.24 0 0.122-0.043 0.223-0.125 0.302s-0.197 0.115-0.346 0.115c-0.15 0-0.273-0.042-0.364-0.133s-0.139-0.23-0.16-0.417l-0.346 0.071c0.078 0.57 0.362 0.852 0.852 0.852 0.261 0 0.461-0.074 0.612-0.231s0.231-0.368 0.231-0.621c0-0.137-0.024-0.256-0.071-0.355s-0.111-0.173-0.195-0.231c-0.084-0.057-0.272-0.134-0.559-0.231-0.209-0.073-0.33-0.127-0.372-0.16-0.071-0.056-0.107-0.133-0.107-0.23 0-0.1 0.033-0.185 0.107-0.249s0.187-0.098 0.337-0.098c0.265 0 0.413 0.145 0.444 0.435l0.337-0.053c-0.023-0.183-0.063-0.328-0.124-0.426s-0.151-0.181-0.266-0.239c-0.116-0.058-0.248-0.080-0.4-0.080zM20.265 19.364c-0.277 0-0.512 0.114-0.692 0.355s-0.266 0.59-0.266 1.047c0 0.441 0.087 0.787 0.266 1.021s0.412 0.346 0.701 0.346c0.23 0 0.421-0.069 0.577-0.213s0.269-0.356 0.328-0.639l-0.355-0.062c-0.102 0.363-0.29 0.541-0.55 0.541-0.166 0-0.302-0.070-0.417-0.222s-0.181-0.377-0.195-0.674h1.526v-0.124c0-0.448-0.089-0.784-0.266-1.021s-0.392-0.355-0.657-0.355zM22.368 19.364c-0.083 0-0.155 0.028-0.222 0.089s-0.142 0.186-0.222 0.372v-0.408h-0.311v2.654h0.346v-1.384c0-0.193 0.018-0.379 0.062-0.55 0.025-0.099 0.072-0.176 0.133-0.231s0.131-0.080 0.204-0.080c0.081 0 0.163 0.033 0.248 0.098l0.116-0.417c-0.12-0.096-0.239-0.142-0.355-0.142zM26.61 19.364c-0.274 0-0.5 0.116-0.675 0.346-0.174 0.231-0.266 0.577-0.266 1.038 0 0.458 0.093 0.805 0.266 1.038s0.39 0.346 0.657 0.346c0.221 0 0.41-0.082 0.568-0.248s0.253-0.412 0.293-0.728l-0.337-0.053c-0.025 0.226-0.084 0.389-0.177 0.497s-0.206 0.16-0.337 0.16c-0.168 0-0.31-0.078-0.418-0.239s-0.16-0.42-0.16-0.781c0-0.35 0.057-0.602 0.169-0.763s0.255-0.248 0.426-0.248c0.114 0 0.212 0.044 0.293 0.133s0.136 0.23 0.169 0.409l0.338-0.071c-0.041-0.28-0.13-0.491-0.276-0.63s-0.321-0.204-0.532-0.204zM28.59 19.364c-0.277 0-0.512 0.114-0.692 0.355s-0.266 0.59-0.266 1.047c0 0.441 0.087 0.787 0.266 1.021s0.412 0.346 0.701 0.346c0.23 0 0.421-0.069 0.577-0.213s0.269-0.356 0.328-0.639l-0.355-0.062c-0.102 0.363-0.282 0.541-0.541 0.541-0.166 0-0.31-0.070-0.426-0.222s-0.181-0.377-0.195-0.674h1.526v-0.124c0-0.448-0.089-0.784-0.266-1.021s-0.392-0.355-0.657-0.355zM30.64 19.364c-0.241 0-0.432 0.071-0.568 0.213s-0.204 0.324-0.204 0.55c0 0.131 0.020 0.243 0.071 0.346s0.122 0.187 0.213 0.248c0.090 0.061 0.273 0.142 0.541 0.231 0.186 0.060 0.306 0.111 0.355 0.151 0.070 0.058 0.107 0.134 0.107 0.24 0 0.122-0.042 0.223-0.124 0.302s-0.196 0.115-0.346 0.115c-0.151 0-0.273-0.042-0.364-0.133s-0.149-0.23-0.169-0.417l-0.346 0.071c0.078 0.57 0.361 0.852 0.852 0.852 0.262 0 0.47-0.074 0.621-0.231s0.23-0.368 0.23-0.621c0-0.137-0.024-0.256-0.070-0.355s-0.12-0.173-0.204-0.231c-0.084-0.057-0.264-0.134-0.55-0.231-0.209-0.073-0.339-0.127-0.382-0.16-0.071-0.056-0.107-0.133-0.107-0.23 0-0.1 0.042-0.185 0.116-0.249s0.188-0.098 0.337-0.098c0.265 0 0.412 0.145 0.444 0.435l0.337-0.053c-0.023-0.183-0.063-0.328-0.124-0.426s-0.151-0.181-0.266-0.239c-0.116-0.058-0.248-0.080-0.4-0.080zM22.723 19.417l0.773 2.654h0.328l0.772-2.654h-0.355l-0.453 1.624c-0.055 0.196-0.103 0.366-0.133 0.506-0.038-0.176-0.074-0.361-0.124-0.541l-0.444-1.588h-0.364zM24.898 19.417v2.654h0.346v-2.654h-0.346zM13.519 19.453c-0.274 0-0.495 0.123-0.674 0.364s-0.275 0.59-0.275 1.047c0 0.441 0.089 0.778 0.266 1.012s0.414 0.355 0.701 0.355c0.228 0 0.414-0.078 0.568-0.222s0.261-0.356 0.32-0.639l-0.346-0.053c-0.101 0.363-0.284 0.541-0.541 0.541-0.165 0-0.303-0.070-0.417-0.222s-0.182-0.377-0.195-0.674h1.509l0.009-0.124c0-0.448-0.091-0.793-0.266-1.030s-0.395-0.355-0.657-0.355zM9.623 19.515l0.621 2.654h0.364l0.409-2.041 0.071 0.453 0.328 1.589h0.355l0.63-2.654h-0.328l-0.347 1.535-0.116 0.515-0.107-0.515-0.302-1.535h-0.355l-0.319 1.553-0.107 0.55-0.124-0.568-0.32-1.535h-0.355zM20.256 19.728c0.172 0 0.314 0.083 0.426 0.248 0.076 0.113 0.127 0.285 0.142 0.515h-1.145c0.011-0.233 0.077-0.413 0.187-0.55s0.236-0.213 0.39-0.213zM28.581 19.728c0.172 0 0.314 0.083 0.426 0.248 0.077 0.113 0.127 0.285 0.142 0.515h-1.145c0.011-0.233 0.077-0.413 0.186-0.55s0.236-0.213 0.39-0.213zM13.519 19.825c0.171 0 0.307 0.084 0.418 0.249 0.076 0.113 0.126 0.285 0.142 0.515h-1.127c0.011-0.233 0.069-0.422 0.178-0.559s0.237-0.204 0.39-0.204zM15.72 19.825c0.154 0 0.285 0.085 0.391 0.249s0.151 0.415 0.151 0.763c0 0.339-0.050 0.593-0.16 0.763s-0.24 0.257-0.382 0.257c-0.104 0-0.198-0.035-0.284-0.107s-0.149-0.174-0.195-0.311c-0.046-0.137-0.071-0.347-0.071-0.621 0-0.323 0.058-0.566 0.168-0.737s0.24-0.258 0.382-0.258zM4.649 17.012l-1.322 0.568 1.225 0.524 1.42-0.524-1.322-0.568zM2.66 17.722l-0.045 2.556 1.935 0.852v-2.654l-1.891-0.755zM6.636 17.722l-1.748 0.666v2.503l1.748-0.71v-2.459zM8.722 9.77l-1.332 0.568 1.234 0.524 1.42-0.524-1.322-0.568zM6.876 10.524v2.556l1.651 0.479 0.053-2.325-1.704-0.71zM10.568 10.666l-1.562 0.666v2.512l1.562-0.71v-2.467zM2.469 13.367l-1.323 0.568 1.225 0.524 1.42-0.524-1.322-0.568zM0.481 14.077l-0.044 2.556 1.935 0.852v-2.654l-1.89-0.754zM4.457 14.077l-1.748 0.665v2.503l1.748-0.71v-2.459zM6.729 13.273l-1.322 0.568 1.225 0.524 1.42-0.524-1.322-0.568zM4.742 13.982l-0.044 2.556 1.935 0.852v-2.654l-1.891-0.755zM8.718 13.982l-1.748 0.666v2.503l1.748-0.71v-2.459zM12.883 9.77l-1.322 0.568 1.225 0.524 1.42-0.524-1.323-0.568zM10.895 10.479l-0.044 2.556 1.935 0.852v-2.654l-1.89-0.755zM14.871 10.479l-1.748 0.666v2.503l1.748-0.71v-2.459z"></path>
</svg>
