<!-- Generated by IcoMoon.io -->
<svg version="1.1" xmlns="http://www.w3.org/2000/svg" width="32" height="32" viewBox="0 0 32 32">
<title>android-plain-wordmark</title>
<path fill="#a4c439" d="M3.425 26.785h2.012v4.355h-0.873v-3.506l-0.966 0.003c-0.435 0-0.677 0.018-0.725 0.055-0.26 0.070-0.479 0.221-0.659 0.45-0.193 0.276-0.29 0.551-0.29 0.825 0 0.338 0.131 0.649 0.392 0.933 0.175 0.167 0.326 0.268 0.453 0.302 0.127 0.064 0.345 0.097 0.655 0.097h0.607v0.843h-0.728c-0.54 0-0.996-0.142-1.369-0.426-0.27-0.213-0.45-0.407-0.54-0.58-0.226-0.358-0.339-0.725-0.339-1.099v-0.127c0-0.524 0.196-1.004 0.589-1.441 0.238-0.232 0.432-0.378 0.583-0.438 0.109-0.061 0.259-0.118 0.45-0.172 0.171-0.049 0.42-0.073 0.746-0.073zM9.831 27.654c0.086 0.117 0.149 0.216 0.187 0.299 0.056 0.099 0.11 0.232 0.16 0.399 0.060 0.201 0.091 0.475 0.091 0.822v1.966h-0.873v-2.060c0-0.693-0.313-1.156-0.939-1.389-0.143-0.040-0.269-0.061-0.378-0.064-0.109 0.002-0.234 0.023-0.375 0.064-0.626 0.234-0.939 0.697-0.939 1.389v2.060h-0.876v-1.966c0-0.346 0.030-0.62 0.090-0.822 0.050-0.167 0.104-0.3 0.16-0.399 0.038-0.084 0.101-0.184 0.19-0.299 0.469-0.576 1.052-0.864 1.749-0.864s1.281 0.288 1.752 0.864zM12.28 26.787c0.586 0 0.922 0.013 1.009 0.039 0.238 0.028 0.505 0.128 0.803 0.299 0.163 0.101 0.336 0.255 0.52 0.462 0.326 0.405 0.489 0.865 0.489 1.38 0 0.302-0.058 0.587-0.175 0.855-0.229 0.521-0.607 0.898-1.133 1.13-0.244 0.125-0.618 0.187-1.123 0.187h-1.851l-0.097-0.018v-0.828h2.042c0.217 0 0.386-0.019 0.505-0.057 0.316-0.107 0.547-0.266 0.694-0.477 0.179-0.267 0.269-0.529 0.269-0.782 0-0.256-0.078-0.507-0.232-0.755-0.097-0.143-0.203-0.252-0.32-0.326-0.213-0.175-0.518-0.263-0.915-0.263h-2.042v-0.846h1.558zM15.555 26.787h2.797c0.493 0 0.88 0.148 1.16 0.444 0.125 0.117 0.212 0.23 0.26 0.338 0.109 0.218 0.163 0.43 0.163 0.637v0.124c0 0.318-0.138 0.629-0.413 0.933-0.177 0.169-0.338 0.278-0.483 0.326 0.366 0.391 0.55 0.907 0.55 1.549h-0.879v-0.067c0-0.475-0.192-0.853-0.577-1.133-0.22-0.155-0.506-0.233-0.861-0.233h-1.716v-0.84h2.851c0.312 0 0.523-0.154 0.634-0.462 0.012-0.062 0.020-0.115 0.024-0.157 0-0.171-0.071-0.326-0.214-0.465-0.123-0.097-0.254-0.145-0.392-0.145 0-0.008-0.042-0.012-0.127-0.012h-2.776v-0.84zM22.565 26.79h0.030c0.669 0 1.239 0.274 1.713 0.822 0.306 0.411 0.459 0.858 0.459 1.341v0.030c0 0.669-0.28 1.236-0.84 1.703-0.407 0.302-0.853 0.453-1.338 0.453h-0.030c-0.665 0-1.233-0.272-1.706-0.816-0.165-0.232-0.281-0.444-0.348-0.637-0.078-0.242-0.118-0.478-0.118-0.71v-0.030c0-0.657 0.271-1.218 0.813-1.686 0.366-0.262 0.701-0.409 1.003-0.441 0.093-0.020 0.213-0.030 0.363-0.030zM21.257 28.959c0 0.379 0.148 0.711 0.444 0.997 0.264 0.225 0.541 0.338 0.831 0.338h0.084c0.234 0 0.471-0.079 0.713-0.238 0.25-0.183 0.419-0.417 0.507-0.701 0.028-0.075 0.048-0.203 0.060-0.384 0-0.37-0.144-0.698-0.432-0.982-0.27-0.24-0.566-0.36-0.888-0.36-0.377 0-0.711 0.157-1.003 0.471-0.123 0.161-0.201 0.298-0.233 0.411-0.056 0.157-0.084 0.306-0.084 0.447zM25.22 26.79h0.873v4.349h-0.873v-4.349zM28.122 26.787c0.586 0 0.922 0.013 1.009 0.039 0.238 0.028 0.505 0.128 0.803 0.299 0.163 0.101 0.337 0.255 0.52 0.462 0.326 0.405 0.489 0.865 0.489 1.38 0 0.302-0.058 0.587-0.175 0.855-0.23 0.521-0.607 0.898-1.133 1.13-0.244 0.125-0.618 0.187-1.123 0.187h-1.852l-0.097-0.018v-0.828h2.042c0.218 0 0.386-0.019 0.505-0.057 0.316-0.107 0.547-0.266 0.695-0.477 0.179-0.267 0.269-0.529 0.269-0.782 0-0.256-0.078-0.507-0.233-0.755-0.097-0.143-0.203-0.252-0.32-0.326-0.213-0.175-0.518-0.263-0.915-0.263h-2.042v-0.846h1.558zM7.296 9.091c-0.82-0.001-1.485 0.666-1.486 1.486l0.001 6.222c0 0.823 0.665 1.487 1.486 1.487s1.486-0.664 1.485-1.486v-6.223c-0.001-0.82-0.666-1.486-1.487-1.486zM19.279 3.503l1.037-1.893c0.055-0.099 0.019-0.225-0.081-0.281-0.101-0.053-0.226-0.017-0.28 0.083l-1.047 1.913c-0.881-0.392-1.868-0.612-2.912-0.611-1.041-0.001-2.027 0.218-2.905 0.608l-1.049-1.909c-0.055-0.101-0.18-0.137-0.279-0.083-0.101 0.055-0.138 0.181-0.082 0.279l1.037 1.893c-2.038 1.051-3.416 3.054-3.415 5.352l13.385-0.002c0-2.298-1.375-4.296-3.41-5.35zM12.951 6.43c-0.308-0-0.559-0.251-0.559-0.561 0-0.308 0.251-0.562 0.56-0.562s0.561 0.253 0.562 0.562c0 0.309-0.252 0.561-0.562 0.561zM19.046 6.429c-0.309 0-0.561-0.25-0.561-0.561 0.001-0.308 0.252-0.561 0.561-0.563 0.308 0.001 0.56 0.255 0.56 0.563 0.001 0.309-0.251 0.561-0.56 0.561zM9.359 9.371l0.002 9.643c-0.001 0.877 0.709 1.585 1.585 1.585l1.079 0 0.002 3.293c-0.001 0.82 0.666 1.486 1.485 1.486 0.821 0 1.486-0.667 1.486-1.487l-0.001-3.291 2.006-0 0.001 3.292c0 0.819 0.667 1.487 1.486 1.485 0.821 0 1.486-0.666 1.486-1.486l-0.001-3.291 1.084-0.001c0.875 0 1.586-0.709 1.586-1.586l-0.002-9.643-13.284 0.002zM26.188 10.575c0-0.821-0.665-1.486-1.486-1.486-0.82-0.001-1.485 0.665-1.485 1.486l0.001 6.223c-0 0.821 0.665 1.485 1.486 1.485s1.485-0.664 1.485-1.486l-0.001-6.222z"></path>
</svg>
