<!-- Generated by IcoMoon.io -->
<svg version="1.1" xmlns="http://www.w3.org/2000/svg" width="32" height="32" viewBox="0 0 32 32">
<title>apache-plain-wordmark</title>
<path fill="#303284" d="M3.7 17.75l-1.85 5h1.3l0.35-1h1.875l0.35 1h1.35l-1.85-5h-1.525zM3.825 20.75l0.625-1.8 0.625 1.8h-1.25zM10.2 18.8c-0.25 0-0.45 0.050-0.65 0.15s-0.3 0.225-0.55 0.35v-0.3h-1.25v5h1.25v-1.475c0 0.075 0.275 0.15 0.425 0.2s0.325 0.075 0.525 0.075c0.225 0 0.45-0.050 0.65-0.125s0.375-0.225 0.55-0.4c0.15-0.175 0.275-0.375 0.375-0.625s0.15-0.55 0.15-0.85c0-0.6-0.125-1.075-0.4-1.425s-0.6-0.575-1.075-0.575zM10.2 21.65c-0.15 0.2-0.4 0.275-0.725 0.275-0.1 0-0.15 0-0.25-0.025-0.1 0-0.225-0.025-0.225-0.050v-1.9c0-0.075 0.2-0.125 0.325-0.15s0.225-0.050 0.35-0.050c0.275 0 0.475 0.075 0.6 0.25s0.175 0.425 0.175 0.8c-0.025 0.375-0.1 0.65-0.25 0.85zM15.575 19.125c-0.3-0.225-0.8-0.325-1.475-0.325-0.3 0-0.625 0.025-0.925 0.075s-0.425 0.1-0.675 0.125v1h0.225c0.1 0 0.275-0.125 0.5-0.2s0.45-0.125 0.65-0.125c0.325 0 0.525 0.025 0.7 0.1s0.175 0.225 0.175 0.425v0.025c-0.25 0.025-0.65 0.050-0.975 0.1s-0.575 0.125-0.8 0.225c-0.225 0.1-0.4 0.25-0.5 0.425-0.125 0.175-0.175 0.4-0.175 0.675 0 0.35 0.125 0.625 0.375 0.85s0.55 0.325 0.9 0.325c0.15 0 0.3-0.025 0.425-0.050s0.25-0.075 0.375-0.125c0.075-0.050 0.125-0.1 0.225-0.175s0.175-0.125 0.175-0.175v0.45h1.25v-2.625c-0.025-0.45-0.15-0.775-0.45-1zM14.75 21.725c0 0.075-0.15 0.15-0.275 0.2s-0.225 0.075-0.35 0.075c-0.15 0-0.25 0-0.325-0.025s-0.125-0.050-0.175-0.1c-0.050-0.050-0.075-0.1-0.1-0.15s-0.025-0.125-0.025-0.2c0-0.125 0.025-0.225 0.1-0.3s0.15-0.125 0.275-0.175c0.1-0.025 0.175-0.050 0.375-0.075l0.475-0.050v0.8zM19.125 18.8c-0.3 0-0.575 0.025-0.825 0.1-0.275 0.075-0.5 0.2-0.7 0.35-0.2 0.175-0.375 0.375-0.5 0.65s-0.175 0.575-0.175 0.925c0 0.325 0.050 0.625 0.175 0.875s0.275 0.45 0.475 0.625c0.2 0.175 0.45 0.275 0.725 0.375 0.275 0.075 0.575 0.125 0.9 0.125 0.25 0 0.5-0.025 0.7-0.075s0.375-0.125 0.625-0.225v-1.025h-0.2c-0.050 0-0.1 0.1-0.15 0.15s-0.125 0.1-0.2 0.15c-0.075 0.050-0.175 0.075-0.3 0.125-0.125 0.025-0.25 0.050-0.425 0.050-0.325 0-0.575-0.1-0.75-0.275s-0.275-0.475-0.275-0.825 0.075-0.625 0.25-0.85c0.175-0.2 0.425-0.3 0.75-0.3 0.15 0 0.275 0.025 0.375 0.050s0.2 0.075 0.3 0.125c0.1 0.050 0.175 0.15 0.25 0.2s0.125-0.050 0.175 0.2h0.175v-1.125c-0.25-0.1-0.4-0.175-0.625-0.225-0.225-0.1-0.475-0.15-0.75-0.15zM23.775 18.8c-0.25 0-0.45 0.050-0.65 0.125-0.2 0.1-0.375 0.225-0.625 0.4v-1.825h-1.25v5.25h1.25v-2.725c0.25-0.075 0.25-0.125 0.375-0.175 0.125-0.025 0.225-0.050 0.325-0.050 0.15 0 0.275 0.025 0.375 0.050 0.075 0.050 0.15 0.1 0.2 0.175s0 0.175 0.025 0.325c0.025 0.15-0.025 0.3-0.025 0.45v1.95h1.25v-2.5c0-0.475-0.075-0.825-0.3-1.075-0.25-0.25-0.525-0.375-0.95-0.375zM28.1 18.8c-0.675 0-1.2 0.175-1.575 0.55s-0.575 0.875-0.575 1.5 0.2 1.125 0.6 1.475c0.4 0.35 1 0.525 1.75 0.525 0.3 0 0.625-0.025 0.875-0.075s0.35-0.125 0.85-0.25v-1h-0.25c-0.15 0.25-0.325 0.225-0.575 0.3-0.25 0.1-0.5 0.15-0.75 0.15-0.4 0-0.725-0.1-0.925-0.25s-0.325-0.45-0.35-0.7h2.825v-0.375c0-0.575-0.175-1.025-0.5-1.35-0.3-0.35-0.8-0.5-1.4-0.5zM27.15 20.25c0.025-0.25 0.1-0.425 0.25-0.55s0.35-0.175 0.575-0.175c0.25 0 0.45 0.025 0.55 0.175 0.125 0.125 0.175 0.3 0.2 0.55h-1.575zM31.825 14.6l-0.050-0.025v-0.1l-0.025-0.1-0.050-0.075-0.1-0.050h-0.025l-0.025-0.050-0.15-0.1-0.1-0.025h-0.050l-0.1-0.1-0.125-0.075-0.15-0.075-0.15-0.050h-0.050l-0.125-0.15-0.15-0.1-0.15-0.075-0.15-0.050h-0.025l-0.15-0.1-0.2-0.075-0.125-0.025-0.125-0.1-0.125-0.050-0.25-0.050h-0.125l-0.15 0.025h-0.025l-0.1-0.15-0.15-0.1-0.2-0.050h-0.225l-0.25 0.050-0.1 0.025-0.2-0.075-0.2-0.050h-0.65l-0.25-0.1-0.225-0.075-0.225-0.025h-0.15l-0.2-0.2-0.225-0.15-0.2-0.1-0.2-0.050h-0.2l-0.1 0.075-0.125-0.1-0.15-0.075-0.175-0.025-0.15 0.025-0.175-0.075-0.175-0.050h-0.25l-0.275-0.1-0.3-0.075-0.275-0.025h-0.050l-0.3-0.175-0.3-0.075h-0.25l-0.425-0.1-0.275-0.025h-0.125l-0.175-0.175-0.2-0.125-0.225-0.050-0.225 0.025-0.15 0.050-0.2-0.025h-0.45v-0.050l-0.35-0.075-0.35-0.050-0.325-0.025-0.125 0.025v-0.025l-0.5-0.050h-0.025l-0.275-0.125-0.275-0.075-0.25-0.025h-0.2l-0.275-0.1-0.225-0.050h-0.25l-0.275-0.2-0.225-0.075-0.175-0.025-0.2-0.1-0.3-0.050h-0.275l-0.275-0.125-0.25-0.050h-0.15l-0.3-0.15-0.25-0.075-0.25-0.025-0.075 0.025h0.025l-0.35-0.2-0.275-0.1-0.25-0.025h-0.025l-0.175-0.125-0.15-0.075-0.15-0.050-0.175-0.025-0.175 0.025-0.2-0.15-0.175-0.075-0.225-0.025h-0.2l-0.225 0.050-0.050 0.025-0.25-0.125-0.25-0.075h-0.225l-0.2-0.125-0.175-0.075h-0.2l-0.175 0.025-0.175 0.050h-0.025l-0.175-0.175-0.15-0.1-0.175-0.025-0.175 0.025-0.15 0.075-0.050-0.025-0.075-0.050-0.15-0.050h-0.175l-0.075 0.025-0.125 0.075-0.025 0.025-0.225-0.050h-0.2l-0.175 0.050-0.15 0.125-0.1 0.125-0.075 0.175-0.075 0.2-0.050 0.2-0.025 0.2-0.025 0.4 0.025 0.45v0.075c-0.125-0.050-0.25-0.1-0.4-0.15v-0.1l0.025-0.15 0.025-0.325 0.025-0.3-0.025-0.3-0.025-0.15-0.050-0.25-0.050-0.125-0.050-0.1-0.15-0.2-0.15-0.125 0.050 0.225 0.050 0.3 0.025 0.125 0.025 0.15 0.025 0.125-0.1-0.3-0.075-0.25-0.025-0.075-0.050-0.325v-0.1l0.025-0.175 0.025-0.075 0.050-0.175h-0.050l-0.125 0.15-0.15 0.35-0.025 0.15v0.35l0.050 0.35-0.025-0.025-0.15-0.2-0.15-0.375-0.025-0.175-0.025-0.25-0.175 0.15-0.075 0.15-0.050 0.15v0.15l0.025 0.15 0.050 0.15 0.1 0.2-0.050 0.050-0.15-0.025-0.025 0.050 0.1 0.050 0.1 0.075 0.25 0.2 0.075 0.075 0.125 0.15 0.35 0.35 0.075 0.1 0.050 0.050c-1.425-0.575-2.925-1.25-4.775-2.125l-0.1-0.050 0.050 0.1c0.25 0.425 0.975 0.85 1.6 1.25 0.3 0.175 0.575 0.35 0.775 0.5 0.6 0.325 1.4 0.675 2.1 0.95h-0.050l-0.5 0.1-0.35 0.075-0.35 0.125-0.175 0.075-0.175 0.050-0.15 0.1-0.125 0.1-0.125 0.125-0.1 0.125-0.075 0.15-0.050 0.175 0.050 0.025 0.225-0.225 0.3-0.2 0.15-0.075 0.1-0.025 0.075-0.025 0.175-0.050 0.175-0.025 0.15-0.050 0.325-0.175 0.3-0.2 0.125-0.075 0.1-0.050 0.075-0.025 0.15 0.050-0.6 0.3-0.325 0.2-0.175 0.125-0.3 0.25-0.125 0.15-0.075 0.125-0.050 0.15-0.025 0.15 0.025 0.175 0.1 0.225 0.125-0.25 0.1-0.15 0.1-0.125 0.1-0.1 0.1-0.075 0.225-0.15 0.1-0.050-0.075 0.3v0.225l0.025 0.25 0.075 0.275h0.050l0.050-0.275 0.075-0.25 0.050-0.125 0.1-0.225 0.125-0.225 0.2-0.35 0.275-0.45c0.1 0.050 0.2 0.075 0.3 0.1l-0.2 0.4-0.1 0.15-0.075 0.175-0.025 0.175-0.050 0.175-0.025 0.175v0.175l0.025 0.15 0.075 0.15 0.125 0.125 0.175 0.1 0.2 0.075 0.075 0.15 0.1 0.125 0.1 0.1 0.1 0.075 0.1 0.050 0.1 0.025h0.25v0.025l0.1 0.15 0.15 0.125 0.175 0.075h0.2l0.2-0.050 0.2 0.2 0.15 0.1 0.175 0.075 0.2 0.025h0.15l0.15 0.1 0.175 0.075 0.2 0.050 0.15 0.125 0.2 0.1 0.25 0.050 0.275 0.025h0.050l0.175 0.15 0.2 0.1 0.175 0.075 0.2 0.025 0.225-0.050 0.25 0.125 0.15 0.025h0.15l0.15-0.025 0.075 0.050 0.25 0.075 0.275 0.025 0.325-0.025 0.1 0.050 0.225 0.075 0.25 0.025 0.35-0.025h0.025l0.225 0.075 0.25 0.025 0.275-0.025 0.1 0.075 0.25 0.1 0.25 0.025 0.275-0.025v-0.025l0.15 0.050h0.25l0.275-0.050 0.175 0.050h0.2l0.2-0.025 0.275 0.050 0.075 0.050 0.25 0.075 0.25 0.050 0.275 0.025 0.275-0.025v-0.025l0.15 0.050 0.45 0.050v-0.025l0.45 0.15 0.325 0.075 0.35-0.075v-0.025h0.050l0.225 0.050 0.2 0.025h0.225l0.025 0.025 0.2 0.15 0.2 0.1h0.325l0.2-0.1 0.175-0.15 0.225 0.025 0.275-0.025h0.3v0.025l0.075 0.050 0.275 0.050 0.275-0.025 0.275-0.125h0.25l0.3 0.025 0.25-0.025 0.15 0.025h0.35l0.225-0.025 0.125 0.050 0.15 0.025 0.15-0.025 0.15-0.075 0.025 0.025 0.2 0.025h0.625l0.2-0.075 0.275-0.1h0.4l0.2-0.025 0.125 0.050 0.2 0.050 0.2 0.025 0.2-0.025 0.225-0.050 0.050 0.025 0.225 0.1 0.2 0.075h0.2l0.15-0.075 0.125-0.125 0.075 0.025 0.25 0.050h0.125l0.125-0.025 0.125-0.050 0.175 0.025 0.2-0.025 0.175-0.075h0.175l0.15-0.025 0.15-0.075 0.125-0.1 0.025-0.025 0.15 0.025 0.15-0.025 0.125 0.025h0.225l0.1-0.075 0.075-0.050 0.025-0.050h0.025l0.075-0.025 0.075-0.050 0.050-0.125 0.025-0.15h0.050l0.075-0.025 0.025-0.075 0.025 0.025v-0.2l-0.075-0.1zM5.225 10.6l-0.075 0.050 0.050-0.125 0.075 0.025-0.050 0.050zM5.35 9.875l-0.050-0.050-0.050-0.1v-0.6l0.025-0.2 0.025 0.025 0.075 0.375 0.075 0.4 0.050 0.175c-0.075 0-0.125-0.025-0.15-0.025z"></path>
</svg>
