<!-- Generated by IcoMoon.io -->
<svg version="1.1" xmlns="http://www.w3.org/2000/svg" width="32" height="32" viewBox="0 0 32 32">
<title>bitbucket-original-wordmark</title>
<path fill="#205081" d="M11.991 27.098c-0.442 0-0.888 0.109-1.191 0.223v-1.655c-0-0.083-0.068-0.151-0.151-0.151-0 0-0 0-0 0v0h-0.893c0 0 0 0 0 0-0.083 0-0.15 0.067-0.15 0.15 0 0 0 0.001 0 0.001v-0 5.7c0 0.073 0.053 0.135 0.124 0.148 0.55 0.101 1.2 0.136 1.59 0.136 1.675 0 2.018-0.712 2.018-1.782v-1.247c0-1.010-0.454-1.521-1.348-1.521zM11.371 30.613c-0.226 0-0.413-0.009-0.572-0.027v-2.23c0.246-0.11 0.591-0.221 0.868-0.221 0.338 0 0.476 0.133 0.476 0.458v1.308c0 0.472-0.119 0.712-0.773 0.712zM17.442 27.185h-0.891c0 0 0 0 0 0-0.083 0-0.15 0.067-0.151 0.15v2.824c-0.322 0.163-0.774 0.332-1.043 0.332-0.201 0-0.275-0.074-0.275-0.275v-2.881c0-0.082-0.069-0.15-0.152-0.15h-0.89c-0 0-0.001 0-0.001 0-0.083 0-0.15 0.067-0.15 0.15 0 0 0 0 0 0v0 2.994c0 0.876 0.345 1.32 1.024 1.32 0.473 0 1.116-0.163 1.66-0.418l0.066 0.223c0.020 0.064 0.078 0.108 0.145 0.108l0.66-0c0.083 0 0.151-0.067 0.151-0.151v-4.076c0-0.082-0.067-0.15-0.151-0.15zM21.032 30.639c-0.007-0.043-0.030-0.079-0.063-0.102l-0-0c-0.024-0.016-0.054-0.026-0.086-0.026-0.012 0-0.024 0.001-0.035 0.004l0.001-0c-0.256 0.058-0.524 0.090-0.776 0.090-0.565 0-0.729-0.144-0.729-0.642v-1.178c0-0.498 0.163-0.642 0.729-0.642 0.134 0 0.469 0.019 0.776 0.090 0.010 0.003 0.022 0.004 0.034 0.004 0.076 0 0.138-0.056 0.149-0.128l0-0.001 0.106-0.706c0.001-0.007 0.002-0.015 0.002-0.023 0-0.068-0.045-0.125-0.107-0.144l-0.001-0c-0.344-0.101-0.747-0.137-0.984-0.137-1.348 0-1.897 0.491-1.897 1.695v1.161c0 1.204 0.549 1.695 1.897 1.695 0.327 0 0.704-0.052 0.984-0.137 0.063-0.019 0.108-0.077 0.108-0.144 0-0.008-0.001-0.016-0.002-0.023l0 0.001-0.106-0.706zM27.175 27.098c-1.196 0-1.828 0.596-1.828 1.721v1.125c0 1.163 0.593 1.704 1.863 1.704 0.517 0 1.068-0.090 1.512-0.247 0.059-0.022 0.101-0.078 0.101-0.144 0-0.011-0.001-0.021-0.003-0.031l0 0.001-0.133-0.637c-0.015-0.069-0.076-0.12-0.148-0.12-0.014 0-0.028 0.002-0.041 0.006l0.001-0c-0.41 0.116-0.799 0.172-1.193 0.172-0.649 0-0.765-0.211-0.765-0.651v-0.154h2.213c0 0 0 0 0.001 0 0.083 0 0.15-0.067 0.15-0.15 0-0 0-0.001 0-0.001v0-0.82c0-1.21-0.55-1.773-1.731-1.773zM26.542 28.859v-0.145c0-0.42 0.205-0.616 0.642-0.616 0.484 0 0.581 0.236 0.581 0.616v0.144h-1.223zM5.728 27.183h-0.891c-0.083 0-0.151 0.068-0.151 0.151v4.076c0 0.084 0.067 0.151 0.151 0.151h0.891c0.085 0 0.152-0.067 0.152-0.151v-4.075c0-0 0-0 0-0 0-0.083-0.067-0.151-0.151-0.151-0 0-0.001 0-0.001 0h0zM5.728 25.514h-0.891c-0.083 0-0.151 0.068-0.151 0.151v0.768c0 0.085 0.067 0.151 0.151 0.151h0.891c0.001 0 0.001 0 0.002 0 0.083 0 0.15-0.067 0.15-0.15 0-0 0-0.001 0-0.001v0-0.767c0-0 0-0 0-0 0-0.083-0.068-0.151-0.151-0.151-0 0-0.001 0-0.001 0h0zM3.483 28.453c0.369-0.203 0.53-0.488 0.53-0.926v-0.599c0-0.878-0.527-1.304-1.608-1.304h-2.2c-0.083 0-0.15 0.067-0.15 0.151v5.635c0 0.084 0.068 0.151 0.15 0.151h2.357c1.050 0 1.652-0.51 1.652-1.399v-0.619c0-0.53-0.269-0.926-0.731-1.089zM1.283 26.66h0.991c0.449 0 0.511 0.196 0.511 0.405v0.514c0 0.334-0.156 0.477-0.52 0.477h-0.214c-0 0-0.001 0-0.001 0-0.084 0-0.151 0.068-0.151 0.151 0 0 0 0 0 0v0 0.708c0 0.084 0.067 0.151 0.152 0.151h0.388c0.389 0 0.547 0.151 0.547 0.52v0.436c0 0.376-0.162 0.503-0.643 0.503h-1.060v-3.864zM9.077 30.694c-0.006-0.043-0.030-0.080-0.064-0.103l-0.001-0c-0.024-0.016-0.053-0.025-0.084-0.025-0.013 0-0.026 0.002-0.038 0.005l0.001-0c-0.158 0.039-0.309 0.061-0.425 0.061-0.22 0-0.318-0.096-0.318-0.31v-2.16h0.866c0.083 0 0.151-0.067 0.151-0.151v-0.674c-0-0.083-0.068-0.151-0.151-0.151 0 0 0 0 0 0h-0.866v-1.038c-0-0.083-0.068-0.151-0.152-0.151-0.007 0-0.015 0.001-0.022 0.002l0.001-0-0.891 0.124c-0.074 0.011-0.13 0.074-0.13 0.15 0 0 0 0 0 0v0 0.913h-0.486c-0.083 0-0.151 0.068-0.151 0.151v0.674c0 0.083 0.067 0.151 0.151 0.151h0.486v2.3c0 0.789 0.414 1.19 1.233 1.19 0.233 0 0.629-0.054 0.887-0.144 0.060-0.021 0.102-0.076 0.102-0.142 0-0.008-0.001-0.016-0.002-0.024l0 0.001-0.098-0.646zM31.846 30.694c-0.011-0.073-0.073-0.129-0.148-0.129-0.013 0-0.026 0.002-0.038 0.005l0.001-0c-0.159 0.039-0.309 0.061-0.426 0.061-0.22 0-0.32-0.096-0.32-0.311v-2.16h0.867c0 0 0 0 0 0 0.083 0 0.15-0.067 0.15-0.15 0-0 0-0.001 0-0.001v0-0.674c0-0 0-0 0-0.001 0-0.083-0.067-0.15-0.15-0.15 0 0 0 0 0 0h-0.867v-1.038c0-0.001 0-0.001 0-0.002 0-0.044-0.020-0.084-0.051-0.111l-0-0c-0.026-0.023-0.061-0.037-0.099-0.037-0.007 0-0.015 0.001-0.022 0.002l0.001-0-0.891 0.124c-0.074 0.011-0.13 0.073-0.13 0.149v0.915h-0.485c-0.082 0-0.151 0.067-0.151 0.151v0.674c0 0.082 0.068 0.151 0.151 0.151h0.485v2.3c0 0.788 0.415 1.189 1.233 1.189 0.234 0 0.629-0.054 0.887-0.143 0.060-0.021 0.102-0.077 0.102-0.143 0-0.008-0.001-0.016-0.002-0.023l0 0.001-0.098-0.646zM25.209 31.308l-1.192-1.968 1.15-1.938c0.014-0.022 0.021-0.049 0.021-0.078 0-0.083-0.067-0.151-0.151-0.151-0 0-0.001 0-0.001 0h-0.984c-0 0-0 0-0 0-0.056 0-0.104 0.030-0.13 0.075l-0 0.001-1.094 1.896v-3.481c0-0 0-0 0-0 0-0.083-0.067-0.151-0.151-0.151-0 0-0 0-0 0v0h-0.891c0 0 0 0 0 0-0.083 0-0.151 0.067-0.151 0.151v0 5.744c0 0.083 0.067 0.151 0.151 0.151h0.891c0.084 0 0.151-0.067 0.151-0.151v-1.88l1.164 1.948c0.027 0.046 0.076 0.073 0.13 0.073h0.967c0.083-0.001 0.15-0.068 0.15-0.151 0-0.034-0.011-0.066-0.031-0.091l0 0z"></path>
<path fill="#205081" d="M16 1.107c-5.5 0-9.906 1.468-9.906 3.289 0 0.48 1.194 7.36 1.666 10.089 0.212 1.224 3.367 3.018 8.242 3.018l-0.003-0.015v0.015c5 0 8.047-1.794 8.259-3.018 0.473-2.729 1.659-9.609 1.659-10.089-0-1.821-4.418-3.289-9.918-3.289zM16.016 15.293c-1.741 0-3.152-1.411-3.152-3.152s1.411-3.152 3.152-3.152 3.152 1.411 3.152 3.152c0 1.74-1.411 3.152-3.152 3.152zM16.014 5.413c-3.506-0.005-6.348-0.614-6.347-1.361s2.845-1.346 6.351-1.341 6.348 0.615 6.347 1.361c-0.001 0.747-2.845 1.346-6.352 1.341z"></path>
<path fill="#205081" d="M23.141 17.22c-0.151 0-0.271 0.107-0.271 0.107s-2.442 1.933-6.854 1.933c-4.412 0-6.854-1.933-6.854-1.933s-0.121-0.107-0.271-0.107c-0.18 0-0.351 0.121-0.351 0.388 0 0.028 0.002 0.056 0.008 0.084 0.379 2.028 0.656 3.469 0.704 3.688 0.331 1.492 3.249 2.62 6.764 2.62h0c3.514 0 6.433-1.128 6.764-2.62 0.048-0.219 0.325-1.659 0.704-3.687 0.005-0.027 0.008-0.056 0.008-0.084-0-0.267-0.171-0.388-0.351-0.388z"></path>
<path fill="#205081" d="M17.592 12.14c0 0.872-0.707 1.579-1.579 1.579s-1.579-0.707-1.579-1.579c0-0.872 0.707-1.579 1.579-1.579s1.579 0.707 1.579 1.579z"></path>
</svg>
