<!-- Generated by IcoMoon.io -->
<svg version="1.1" xmlns="http://www.w3.org/2000/svg" width="32" height="32" viewBox="0 0 32 32">
<title>bootstrap-plain-wordmark</title>
<path fill="#5b4282" d="M2.383 28.146h1.040c0.474 0 0.818 0.067 1.032 0.203s0.321 0.349 0.321 0.644c0 0.2-0.047 0.363-0.141 0.491s-0.218 0.205-0.374 0.231v0.023c0.212 0.047 0.365 0.136 0.458 0.265s0.141 0.302 0.141 0.517c0 0.305-0.11 0.543-0.33 0.713s-0.519 0.256-0.897 0.256h-1.25v-3.343zM3.091 29.471h0.412c0.192 0 0.331-0.030 0.417-0.089s0.129-0.158 0.129-0.295c0-0.128-0.047-0.22-0.14-0.276s-0.242-0.084-0.445-0.084h-0.373v0.743zM3.091 30.033v0.871h0.462c0.195 0 0.339-0.037 0.432-0.112s0.139-0.189 0.139-0.343c0-0.277-0.198-0.416-0.595-0.416h-0.439zM8.563 29.814c0 0.553-0.137 0.979-0.412 1.276s-0.668 0.446-1.18 0.446-0.905-0.149-1.18-0.446c-0.274-0.297-0.412-0.724-0.412-1.28s0.138-0.981 0.413-1.275 0.67-0.44 1.183-0.44 0.907 0.148 1.179 0.444c0.272 0.296 0.408 0.721 0.408 1.276zM6.123 29.814c0 0.373 0.071 0.655 0.213 0.844s0.354 0.284 0.636 0.284c0.566 0 0.848-0.376 0.848-1.127 0-0.753-0.281-1.13-0.844-1.13-0.282 0-0.495 0.095-0.638 0.285s-0.215 0.471-0.215 0.845zM12.29 29.814c0 0.553-0.137 0.979-0.412 1.276s-0.668 0.446-1.18 0.446-0.905-0.149-1.18-0.446c-0.274-0.297-0.412-0.724-0.412-1.28s0.137-0.981 0.413-1.275 0.669-0.44 1.183-0.44 0.906 0.148 1.179 0.444c0.271 0.296 0.408 0.721 0.408 1.276zM9.851 29.814c0 0.373 0.071 0.655 0.213 0.844s0.354 0.284 0.636 0.284c0.566 0 0.848-0.376 0.848-1.127 0-0.753-0.281-1.13-0.844-1.13-0.282 0-0.495 0.095-0.638 0.285s-0.215 0.471-0.215 0.845zM14.273 31.489h-0.709v-2.753h-0.908v-0.59h2.524v0.59h-0.908v2.753zM17.668 30.561c0 0.302-0.108 0.54-0.326 0.713s-0.52 0.261-0.907 0.261c-0.357 0-0.672-0.067-0.947-0.201v-0.659c0.226 0.101 0.416 0.172 0.573 0.213s0.299 0.062 0.429 0.062c0.155 0 0.275-0.030 0.358-0.089s0.125-0.148 0.125-0.265c0-0.066-0.018-0.124-0.055-0.175s-0.090-0.1-0.161-0.148-0.215-0.123-0.433-0.226c-0.204-0.096-0.357-0.188-0.46-0.277s-0.184-0.191-0.245-0.308c-0.061-0.117-0.091-0.255-0.091-0.412 0-0.296 0.1-0.528 0.301-0.698s0.478-0.254 0.831-0.254c0.174 0 0.34 0.020 0.497 0.062s0.323 0.099 0.495 0.174l-0.229 0.551c-0.178-0.073-0.326-0.124-0.442-0.153s-0.231-0.044-0.344-0.044c-0.134 0-0.237 0.031-0.309 0.094s-0.108 0.144-0.108 0.245c0 0.063 0.015 0.117 0.044 0.163s0.075 0.091 0.138 0.135c0.063 0.044 0.213 0.122 0.449 0.235 0.313 0.149 0.527 0.299 0.642 0.449s0.174 0.334 0.174 0.552zM19.564 31.489h-0.709v-2.753h-0.908v-0.59h2.524v0.59h-0.908v2.753zM21.695 30.207v1.283h-0.709v-3.343h0.974c0.454 0 0.79 0.083 1.008 0.248s0.327 0.417 0.327 0.753c0 0.197-0.054 0.372-0.162 0.525s-0.262 0.273-0.459 0.36c0.503 0.752 0.831 1.237 0.983 1.456h-0.787l-0.798-1.283h-0.378zM21.695 29.631h0.229c0.224 0 0.39-0.037 0.496-0.112s0.16-0.192 0.16-0.352c0-0.159-0.055-0.271-0.163-0.338s-0.278-0.101-0.506-0.101h-0.215v0.903zM26.123 31.489l-0.242-0.796h-1.219l-0.242 0.796h-0.764l1.18-3.357h0.866l1.184 3.357h-0.763zM25.712 30.099c-0.224-0.721-0.35-1.129-0.378-1.223s-0.048-0.169-0.061-0.224c-0.050 0.195-0.194 0.677-0.432 1.447h0.871zM29.617 29.189c0 0.36-0.113 0.635-0.337 0.825s-0.544 0.286-0.959 0.286h-0.304v1.189h-0.709v-3.343h1.068c0.405 0 0.714 0.087 0.925 0.262s0.317 0.435 0.317 0.781zM28.017 29.72h0.233c0.218 0 0.381-0.043 0.489-0.129s0.162-0.212 0.162-0.376c0-0.166-0.046-0.289-0.136-0.368s-0.233-0.119-0.427-0.119h-0.323v0.992zM18.488 14.19c-0.496-0.163-1.209-0.19-2.141-0.19h-3.346v5h3.606c0.625 0 1.065-0.062 1.318-0.109 0.446-0.079 0.819-0.233 1.118-0.419s0.546-0.467 0.739-0.823c0.193-0.356 0.29-0.772 0.29-1.238 0-0.546-0.14-0.995-0.419-1.398s-0.667-0.661-1.163-0.823zM17.974 12.037c0.492-0.146 0.864-0.412 1.113-0.751s0.375-0.776 0.375-1.289c0-0.486-0.116-0.919-0.349-1.288s-0.566-0.62-0.998-0.757c-0.433-0.136-1.175-0.202-2.226-0.202h-2.887v4.5h3.127c0.859 0 1.474-0.1 1.847-0.213zM29.25 4.032c0-1.95-1.581-3.531-3.532-3.531h-19.436c-1.95 0-3.532 1.581-3.532 3.531v19.437c0 1.951 1.581 3.532 3.532 3.532h19.436c1.951 0 3.532-1.581 3.532-3.532v-19.437zM21.642 18.317c-0.289 0.589-0.647 1.043-1.073 1.363s-0.96 0.611-1.602 0.774c-0.642 0.163-1.429 0.295-2.361 0.295h-5.606v-14.75h5.516c1.118 0 2.015 0.155 2.69 0.451s1.204 0.755 1.588 1.371c0.383 0.616 0.574 1.261 0.574 1.934 0 0.626-0.17 1.215-0.509 1.768s-0.852 0.999-1.538 1.338c0.885 0.259 1.566 0.703 2.041 1.328s0.714 1.364 0.714 2.216c-0 0.686-0.145 1.323-0.434 1.912z"></path>
</svg>
