<!-- Generated by IcoMoon.io -->
<svg version="1.1" xmlns="http://www.w3.org/2000/svg" width="32" height="32" viewBox="0 0 32 32">
<title>cplusplus-line</title>
<path fill="#9c033a" d="M21.75 17.5v-1.25h1.25v-1h-1.25v-1.25h-1.25v1.25h-1.25v1h1.25v1.25zM26.25 14h-1v1.25h-1.5v1h1.5v1.25h1v-1.25h1.25v-1h-1.25zM29.125 8.075c-0.15-0.275-0.35-0.525-0.575-0.65l-12.025-6.95c-0.2-0.125-0.475-0.175-0.775-0.175s-0.575 0.075-0.775 0.175l-12.125 6.95c-0.425 0.25-0.85 0.875-0.85 1.35v13.925c0 0.275 0.175 0.575 0.35 0.85l0.025 0.025c0.125 0.2 0.325 0.375 0.5 0.475l12.075 6.975c0.2 0.125 0.5 0.175 0.8 0.175s0.575-0.075 0.775-0.175l11.875-6.975c0.425-0.25 0.6-0.875 0.6-1.35v-13.925c0-0.2 0.1-0.45 0-0.65l0.125-0.050zM28.075 8.6c0 0.075-0.075 0.125-0.075 0.175v13.925c0 0.2-0.050 0.425-0.1 0.5l-11.9 6.95c-0.025 0.025-0.125 0.050-0.275 0.050s-0.25-0.025-0.275-0.050l-12.050-6.95s-0.025-0.025-0.050-0.025l-0.15-0.15c-0.1-0.175 0.050-0.275-0.2-0.3v-13.925c0.25-0.125 0.225-0.425 0.35-0.475l12.075-6.975c0.025 0 0.15-0.050 0.3-0.050s0.25 0.025 0.275 0.050l12 6.925 0.1 0.225c0.025 0.025-0.025 0.075-0.025 0.1zM15.75 21.875c-3.375 0-6.125-2.75-6.125-6.125s2.75-6.125 6.125-6.125c2.275 0 4.275 1.25 5.325 3.125l3.25-1.875c-1.7-2.975-4.9-5-8.575-5-5.45 0-9.875 4.425-9.875 9.875s4.425 9.875 9.875 9.875c3.65 0 6.85-2 8.55-4.95l-3.225-1.9c-1.050 1.85-3.050 3.1-5.325 3.1z"></path>
</svg>
