<!-- Generated by IcoMoon.io -->
<svg version="1.1" xmlns="http://www.w3.org/2000/svg" width="32" height="32" viewBox="0 0 32 32">
<title>heroku-plain-wordmark</title>
<path fill="#6762a6" d="M9.825 22.25h13.325c1.15 0 2.075-0.925 2.075-2.075v-17.6c0-1.15-0.925-2.075-2.075-2.075h-13.325c-1.15 0-2.075 0.925-2.075 2.075v17.575c0 1.175 0.925 2.1 2.075 2.1zM19.375 3.5h2.7s-0.45 1.25-1.875 3h-2.6c0.925-1 1.775-3 1.775-3zM14.25 3.4v5.175s6.75-2.7 6.75 2.050v8.625h-2.2l-0.050 0.025v-8.7s0.575-2.075-6.95 0.85c-0.025 0.025-0.025-8.025-0.025-8.025h2.475zM11.75 14.3l2.475 2.475-2.475 2.475v-4.95zM8.825 25.7c-1 0-1.825 0.125-2.425 0.35-0.225 0.8-0.325 1.65-0.325 2.6 0 1.75 0.3 2.825 2.3 2.825 0.925 0 1.7-0.275 2.325-0.575l-0.2-0.9c-0.6 0.225-1.375 0.425-2.050 0.425-0.875 0-1.15-0.225-1.2-1.725h3.75v-0.55c0-1.525-0.55-2.45-2.175-2.45zM7.25 28c0.025-0.75 0.075-0.95 0.125-1.175 0.475-0.1 1.025-0.1 1.4-0.1 0.825 0 0.975 0.525 0.975 1.275h-2.5zM3.475 25.7c-0.675 0-1.225 0.175-1.975 0.375v-2.575h-1v7.75h1v-4.15c0.75-0.25 1.25-0.375 1.75-0.375 0.25 0 0.5 0.125 0.5 0.425v4.225l0.1-0.1h1.15v-3.95c0-0.95-0.45-1.625-1.525-1.625zM30.5 25.75v4.35c-0.75 0.25-1.4 0.375-1.925 0.375-0.25 0-0.575-0.125-0.575-0.425v-4.3h-1v4.175c0 0.925 0.325 1.575 1.4 1.575 0.675 0 1.85-0.1 3.1-0.875v-4.875h-1zM25.95 25.75h-1.35c-0.325 0.75-0.8 1.75-1.4 2.25h-0.45v-4.5h-1.25v7.75h1.25v-2.5h0.525c0.7 0.75 1.15 1.75 1.5 2.5h1.4c-0.525-1-1.125-2.1-1.925-3.1 0.65-0.675 1.25-1.4 1.7-2.4zM12 31.25h1v-4.15c0.5-0.2 1.25-0.275 1.75-0.3v-1c-0.75 0.050-1.75 0.225-2.75 0.775v4.675zM17.85 25.7c-1.525 0-2.575 0.8-2.575 2.925 0 2 0.8 2.875 2.575 2.875 1.525 0 2.575-0.8 2.575-2.925 0-2-0.8-2.875-2.575-2.875zM17.85 30.5c-1 0-1.425-0.35-1.425-1.875 0-1.4 0.5-1.925 1.425-1.925 1 0 1.425 0.35 1.425 1.875-0.025 1.4-0.525 1.925-1.425 1.925z"></path>
</svg>
