<!-- Generated by IcoMoon.io -->
<svg version="1.1" xmlns="http://www.w3.org/2000/svg" width="32" height="32" viewBox="0 0 32 32">
<title>java-plain-wordmark</title>
<path fill="#ea2d2e" d="M13.399 16.954c-3.306 0.924 2.011 2.831 6.22 1.028-0.689-0.268-1.184-0.577-1.184-0.577-1.877 0.355-2.748 0.383-4.451 0.188-1.406-0.161-0.585-0.639-0.585-0.639zM19.115 15.152c-2.488 0.479-3.925 0.463-5.745 0.276-1.407-0.146-0.486-0.828-0.486-0.828-3.641 1.209 2.027 2.579 7.115 1.091-0.541-0.19-0.884-0.539-0.884-0.539zM21.064 4.72s-7.36 1.838-3.845 5.888c1.038 1.194-0.272 2.268-0.272 2.268s2.633-1.359 1.424-3.062c-1.13-1.587-1.995-2.376 2.693-5.095zM9.37 20.326c8.581 1.391 15.642-0.627 13.416-1.631 0 0 0.608 0.501-0.67 0.889-2.429 0.736-10.111 0.958-12.245 0.029-0.767-0.334 0.672-0.797 1.124-0.894 0.472-0.102 0.741-0.084 0.741-0.084-0.853-0.601-5.514 1.18-2.367 1.69zM19.837 13.471c0.413-0.281 0.983-0.526 0.983-0.526s-1.623 0.29-3.24 0.426c-1.979 0.166-4.103 0.199-5.169 0.056-2.524-0.338 1.383-1.266 1.383-1.266s-1.518-0.103-3.383 0.8c-2.207 1.067 5.458 1.553 9.427 0.51zM20.803 16.079c-0.018 0.050-0.081 0.106-0.081 0.106 5.386-1.416 3.406-4.991 0.831-4.086-0.226 0.080-0.345 0.266-0.345 0.266s0.143-0.057 0.461-0.124c1.302-0.271 3.167 1.743-0.867 3.838zM16.252 12.123c-0.795-1.796-3.489-3.368 0.001-6.125 4.352-3.436 2.119-5.67 2.119-5.67 0.901 3.549-3.178 4.622-4.65 6.832-1.002 1.506 0.492 3.125 2.53 4.963zM20.949 21.036c-3.305 0.622-7.381 0.55-9.798 0.151 0 0 0.495 0.41 3.039 0.573 3.871 0.247 9.817-0.138 9.958-1.97 0-0-0.27 0.694-3.2 1.245zM12.783 24.884c-0.722 0-1.338 0.178-1.852 0.405l0.156 0.623c0.405-0.149 0.905-0.287 1.418-0.287 0.713 0 0.995 0.287 0.995 0.88v0.494h-0.3c-1.73 0-2.511 0.646-2.511 1.656 0 0.87 0.515 1.352 1.483 1.352 0.623 0 1.088-0.211 1.522-0.587l0.079 0.58h0.727v-3.623c0-0.9-0.481-1.493-1.717-1.493zM13.5 28.759c-0.25 0.317-0.723 0.494-1.070 0.494-0.493 0-0.747-0.343-0.747-0.817 0-0.514 0.3-0.936 1.448-0.936h0.368v1.259zM17.403 28.92l-0.209-0.902-0.939-3.018h-1.098l1.513 5h1.256c0.721-1.75 1.236-3.5 1.521-5h-1.068c-0.168 1.25-0.504 2.606-0.978 3.92zM22.004 24.884c-0.722 0-1.353 0.178-1.867 0.405l0.149 0.623c0.405-0.149 0.93-0.287 1.445-0.287 0.712 0 1.020 0.287 1.020 0.88v0.494h-0.357c-1.731 0-2.511 0.646-2.511 1.656 0 0.87 0.514 1.352 1.483 1.352 0.623 0 1.087-0.211 1.523-0.587l0.079 0.58h0.784v-3.623c0-0.9-0.511-1.493-1.746-1.493zM21.651 29.249c-0.494 0-0.762-0.341-0.762-0.815 0-0.514 0.287-0.934 1.434-0.934h0.427v1.25h-0.017c-0.366 0.25-0.737 0.499-1.082 0.499zM9 28.843c0 0.818-0.111 1.16-0.245 1.425-0.154 0.298-0.513 0.619-0.9 0.817l0.483 0.586c0.508-0.187 0.986-0.52 1.273-0.939 0.287-0.431 0.389-0.873 0.389-1.967v-5.516h-1v5.593z"></path>
</svg>
