<!-- Generated by IcoMoon.io -->
<svg version="1.1" xmlns="http://www.w3.org/2000/svg" width="32" height="32" viewBox="0 0 32 32">
<title>nodejs-original-wordmark</title>
<path fill="#83cd29" d="M28.581 20.187c-0.073 0-0.145-0.019-0.208-0.056l-0.663-0.392c-0.099-0.055-0.051-0.075-0.018-0.086 0.132-0.046 0.159-0.057 0.299-0.136 0.015-0.008 0.034-0.005 0.049 0.004l0.509 0.302c0.018 0.010 0.045 0.010 0.061 0l1.984-1.145c0.019-0.011 0.030-0.032 0.030-0.054v-2.29c0-0.023-0.012-0.043-0.031-0.055l-1.983-1.144c-0.018-0.011-0.043-0.011-0.061 0l-1.983 1.145c-0.019 0.011-0.031 0.033-0.031 0.055v2.29c0 0.022 0.012 0.043 0.031 0.053l0.544 0.314c0.295 0.147 0.476-0.026 0.476-0.201v-2.261c0-0.032 0.026-0.057 0.058-0.057h0.252c0.031 0 0.057 0.025 0.057 0.057v2.261c0 0.393-0.214 0.619-0.587 0.619-0.115 0-0.205 0-0.457-0.124l-0.52-0.299c-0.129-0.075-0.208-0.213-0.208-0.362v-2.29c0-0.149 0.079-0.288 0.208-0.361l1.984-1.147c0.125-0.071 0.292-0.071 0.417 0l1.984 1.147c0.128 0.074 0.208 0.213 0.208 0.361v2.29c0 0.149-0.080 0.287-0.208 0.362l-1.984 1.145c-0.063 0.037-0.135 0.056-0.209 0.056zM29.195 18.61c-0.869 0-1.050-0.399-1.050-0.733 0-0.032 0.026-0.057 0.058-0.057h0.256c0.029 0 0.052 0.020 0.057 0.049 0.038 0.261 0.154 0.393 0.68 0.393 0.418 0 0.596-0.095 0.596-0.317 0-0.128-0.050-0.223-0.7-0.287-0.543-0.054-0.879-0.174-0.879-0.608 0-0.4 0.337-0.639 0.903-0.639 0.636 0 0.95 0.221 0.99 0.694 0.002 0.016-0.004 0.032-0.015 0.044-0.011 0.011-0.026 0.018-0.042 0.018h-0.258c-0.027 0-0.050-0.019-0.056-0.045-0.062-0.275-0.212-0.363-0.62-0.363-0.456 0-0.509 0.159-0.509 0.278 0 0.144 0.063 0.186 0.679 0.268 0.61 0.081 0.899 0.195 0.899 0.623 0 0.433-0.36 0.681-0.989 0.681z"></path>
<path fill="#404137" d="M24.495 17.108c0.078-0.046 0.127-0.129 0.127-0.22v-0.588c0-0.090-0.048-0.174-0.127-0.22l-2.091-1.214c-0.079-0.046-0.176-0.046-0.255-0.001l-2.104 1.215c-0.078 0.046-0.127 0.129-0.127 0.22v2.429c0 0.091 0.049 0.176 0.128 0.221l2.091 1.191c0.077 0.044 0.172 0.044 0.249 0.002l1.265-0.703c0.040-0.023 0.065-0.064 0.066-0.11s-0.024-0.088-0.064-0.111l-2.117-1.215c-0.040-0.023-0.064-0.065-0.064-0.11v-0.762c0-0.046 0.024-0.087 0.064-0.11l0.659-0.38c0.039-0.023 0.087-0.023 0.127 0l0.659 0.38c0.040 0.023 0.064 0.064 0.064 0.11v0.599c0 0.046 0.024 0.088 0.064 0.11s0.088 0.023 0.128-0l1.26-0.733z"></path>
<path fill="#83cd29" d="M22.246 16.994c0.015-0.009 0.034-0.009 0.049 0l0.404 0.233c0.015 0.009 0.024 0.025 0.024 0.042v0.466c0 0.017-0.009 0.034-0.024 0.042l-0.404 0.233c-0.015 0.009-0.034 0.009-0.049 0l-0.404-0.233c-0.015-0.009-0.024-0.025-0.024-0.042v-0.466c0-0.017 0.009-0.034 0.024-0.042l0.404-0.233z"></path>
<path fill="#404137" d="M16.771 17.963c0 0.023-0.012 0.044-0.032 0.055l-0.723 0.416c-0.020 0.012-0.044 0.012-0.063 0l-0.723-0.416c-0.020-0.012-0.032-0.032-0.032-0.055v-0.834c0-0.023 0.012-0.044 0.032-0.055l0.723-0.417c0.020-0.012 0.044-0.012 0.064 0l0.723 0.417c0.020 0.012 0.032 0.033 0.032 0.055v0.834zM16.966 11.784c-0.039-0.022-0.087-0.021-0.126 0.002s-0.063 0.065-0.063 0.11v3.229c0 0.031-0.017 0.061-0.044 0.077s-0.061 0.016-0.089 0l-0.527-0.304c-0.078-0.045-0.175-0.045-0.254 0l-2.104 1.214c-0.079 0.046-0.127 0.13-0.127 0.22v2.43c0 0.091 0.049 0.174 0.127 0.22l2.104 1.215c0.079 0.046 0.176 0.046 0.254 0l2.105-1.215c0.078-0.046 0.127-0.13 0.127-0.22v-6.057c0-0.092-0.050-0.177-0.13-0.222l-1.253-0.699z"></path>
<path fill="#83cd29" d="M9.559 14.852c0.079-0.046 0.175-0.046 0.254 0l2.104 1.214c0.079 0.046 0.127 0.13 0.127 0.22v2.43c0 0.091-0.049 0.175-0.127 0.22l-2.104 1.215c-0.079 0.045-0.175 0.045-0.254 0l-2.104-1.215c-0.079-0.046-0.127-0.13-0.127-0.22v-2.431c0-0.090 0.048-0.174 0.127-0.22l2.104-1.214z"></path>
<path fill="#404137" d="M5.732 16.266c0-0.091-0.048-0.175-0.127-0.221l-2.104-1.211c-0.036-0.021-0.076-0.032-0.116-0.033h-0.022c-0.040 0.002-0.080 0.012-0.116 0.033l-2.104 1.211c-0.078 0.045-0.127 0.129-0.127 0.221l0.004 3.26c0 0.046 0.024 0.088 0.064 0.11 0.039 0.023 0.087 0.023 0.126 0l1.25-0.716c0.079-0.047 0.127-0.13 0.127-0.221v-1.523c0-0.091 0.048-0.175 0.127-0.22l0.533-0.306c0.039-0.023 0.083-0.034 0.127-0.034s0.088 0.011 0.127 0.034l0.532 0.306c0.079 0.046 0.127 0.129 0.127 0.22v1.523c0 0.091 0.049 0.174 0.127 0.221l1.25 0.716c0.039 0.023 0.088 0.023 0.127 0 0.039-0.022 0.063-0.064 0.063-0.11l0.005-3.26z"></path>
</svg>
