<!-- Generated by IcoMoon.io -->
<svg version="1.1" xmlns="http://www.w3.org/2000/svg" width="32" height="32" viewBox="0 0 32 32">
<title>trello-plain-wordmark</title>
<path fill="#23719f" d="M20.532 18.8c-0.132 0.096-0.226 0.173-0.326 0.238-0.419 0.27-0.834 0.548-1.264 0.802-0.272 0.16-0.579 0.147-0.869 0.046-0.281-0.098-0.561-0.207-0.824-0.346-0.421-0.222-0.555-0.643-0.686-1.065-0.219-0.706 0.078-1.31 0.358-1.919 0.052-0.111 0.123-0.214 0.181-0.323 0.083-0.156 0.036-0.238-0.143-0.227-0.101 0.006-0.208 0.034-0.298 0.079-0.786 0.4-1.47 0.925-1.993 1.645-0.36 0.495-0.581 1.052-0.728 1.644-0.089 0.36-0.357 0.551-0.64 0.488-0.399-0.088-0.683-0.681-0.5-1.045 0.029-0.058 0.055-0.12 0.096-0.169 0.455-0.547 0.614-1.223 0.822-1.877 0.121-0.383 0.241-0.768 0.344-1.156 0.050-0.189 0.113-0.382 0.012-0.586-0.062-0.126 0.040-0.243 0.143-0.255 0.232-0.026 0.487-0.061 0.7 0.008 0.235 0.075 0.254 0.356 0.293 0.576 0.024 0.131 0.005 0.269 0.005 0.449 0.094-0.043 0.162-0.069 0.224-0.104 0.355-0.202 0.699-0.423 1.065-0.604 0.348-0.172 0.704-0.079 1.031 0.082 0.165 0.082 0.25 0.072 0.378-0.071 0.284-0.318 0.579-0.632 0.905-0.905 0.27-0.227 0.622-0.294 0.974-0.269 0.231 0.016 0.462 0.059 0.687 0.116 0.262 0.067 0.428 0.303 0.452 0.569 0.049 0.54-0.167 1.001-0.476 1.407-0.735 0.968-1.567 1.839-2.62 2.471-0.145 0.087-0.157 0.192-0.090 0.327 0.103 0.206 0.352 0.294 0.579 0.224 0.644-0.198 1.142-0.626 1.657-1.031 0.275-0.216 0.568-0.414 0.815-0.658 0.139-0.137 0.205-0.35 0.295-0.534 0.342-0.699 0.66-1.41 1.023-2.098 0.381-0.723 0.808-1.423 1.206-2.137 0.11-0.197 0.19-0.412 0.279-0.62 0.131-0.303 0.335-0.49 0.689-0.458 0.064 0.006 0.13-0.001 0.195-0.001 0.459 0.001 0.709 0.396 0.484 0.801-0.202 0.362-0.436 0.706-0.664 1.053-0.666 1.014-1.352 2.017-1.87 3.118-0.246 0.521-0.469 1.056-0.657 1.601-0.091 0.263-0.091 0.562-0.107 0.846-0.010 0.186 0.12 0.247 0.267 0.124 0.243-0.204 0.462-0.436 0.7-0.646 0.203-0.179 0.432-0.33 0.625-0.518 0.1-0.098 0.165-0.243 0.214-0.378 0.357-0.979 0.814-1.909 1.316-2.819 0.36-0.654 0.734-1.301 1.093-1.956 0.17-0.31 0.311-0.636 0.484-0.945 0.108-0.192 0.278-0.305 0.517-0.28 0.078 0.008 0.157 0.007 0.235-0.002 0.53-0.061 0.696 0.474 0.505 0.803-0.159 0.274-0.332 0.541-0.506 0.806-0.771 1.179-1.577 2.338-2.159 3.628-0.229 0.506-0.415 1.035-0.589 1.563-0.063 0.191-0.045 0.412-0.045 0.619 0 0.188 0.118 0.244 0.267 0.118 0.238-0.2 0.457-0.422 0.688-0.631l0.554-0.483c0.046-0.041 0.099-0.097 0.107-0.152 0.145-1.013 0.641-1.853 1.284-2.619 0.208-0.248 0.416-0.501 0.655-0.718 0.481-0.437 1.105-0.335 1.467 0.010 0.102 0.097 0.159 0.248 0.219 0.382 0.124 0.276 0.214 0.34 0.521 0.339 0.364-0.001 0.728-0.014 1.090 0.005 0.142 0.008 0.292 0.071 0.418 0.144 0.159 0.092 0.145 0.255-0.019 0.33-0.462 0.211-0.944 0.359-1.456 0.371-0.171 0.004-0.244 0.062-0.288 0.238-0.279 1.119-0.668 2.19-1.514 3.024-0.177 0.175-0.381 0.34-0.602 0.448-0.419 0.203-0.784-0.007-1.124-0.237-0.143-0.098-0.281-0.213-0.395-0.344-0.099-0.114-0.154-0.103-0.244-0.002-0.259 0.293-0.534 0.57-0.903 0.727-0.223 0.095-0.439 0.152-0.695 0.076-0.384-0.115-0.73-0.271-0.979-0.595-0.093-0.121-0.155-0.109-0.264-0.014-0.204 0.178-0.412 0.361-0.644 0.497-0.475 0.277-0.931 0.12-1.36-0.137-0.324-0.193-0.553-0.467-0.58-0.907zM26.912 18.269c0.020 0.091 0.031 0.224 0.081 0.341 0.043 0.1 0.119 0.241 0.201 0.255 0.077 0.014 0.208-0.093 0.267-0.179 0.267-0.398 0.525-0.802 0.773-1.212 0.328-0.542 0.494-1.14 0.553-1.767 0.011-0.111-0.013-0.238-0.059-0.339-0.119-0.261-0.241-0.278-0.398-0.043-0.322 0.477-0.64 0.959-0.927 1.457-0.257 0.446-0.426 0.931-0.489 1.487zM19.799 14.974c0.013-0.144-0.052-0.188-0.176-0.155-0.036 0.009-0.070 0.035-0.099 0.059-0.745 0.611-1.32 1.352-1.703 2.238-0.017 0.039 0.006 0.096 0.010 0.145 0.047-0.011 0.107-0.006 0.139-0.034 0.171-0.15 0.334-0.307 0.499-0.463 0.511-0.485 0.966-1.013 1.277-1.653 0.023-0.047 0.038-0.097 0.054-0.137zM11.934 13.961c-0.127-0.014-0.22-0.026-0.312-0.033-0.271-0.020-0.544-0.023-0.813-0.062-0.217-0.031-0.31-0.176-0.31-0.403l0.002-0.117c0.011-0.398 0.157-0.457 0.552-0.4 0.406 0.059 0.83 0.041 1.241 0.003 0.541-0.050 1.076-0.162 1.616-0.23 0.328-0.041 0.659-0.056 0.989-0.073 0.432-0.023 0.778 0.185 1.081 0.457 0.075 0.068 0.104 0.236 0.086 0.348-0.035 0.218-0.542 0.445-0.747 0.24-0.149-0.148-0.344-0.197-0.559-0.172-0.406 0.049-0.813 0.088-1.22 0.134-0.104 0.012-0.143 0.066-0.18 0.181-0.070 0.219-0.197 0.421-0.307 0.626-0.477 0.887-0.899 1.797-1.16 2.774-0.161 0.601-0.305 1.205-0.446 1.811-0.030 0.131-0.024 0.273-0.017 0.409 0.027 0.517-0.255 0.595-0.677 0.459-0.123-0.040-0.237-0.106-0.355-0.16-0.136-0.064-0.226-0.172-0.209-0.32 0.040-0.346 0.070-0.698 0.157-1.034 0.154-0.602 0.331-1.2 0.528-1.789 0.183-0.547 0.402-1.083 0.615-1.62 0.131-0.33 0.282-0.652 0.446-1.029z"></path>
<path fill="#23719f" d="M9 13.007c0-0.556-0.451-1.007-1.007-1.007h-6.236c-0.556 0-1.007 0.451-1.007 1.007v6.236c0 0.556 0.451 1.007 1.007 1.007h6.235c0.556 0 1.008-0.451 1.008-1.007v-6.236zM4.75 18.251c0 0.237-0.529 0.499-0.789 0.499h-1.802c-0.26 0-0.409-0.262-0.409-0.499v-5.064c0-0.237 0.149-0.186 0.409-0.186h1.802c0.26 0 0.789-0.051 0.789 0.186v5.064zM8.25 13.879v2.121c0 0.253-0.321 0.5-0.574 0.5h-1.817c-0.253 0-0.359-0.247-0.359-0.5v-2.8c0-0.253 0.106-0.199 0.359-0.199h1.817c0.253 0 0.574-0.054 0.574 0.199v0.68z"></path>
</svg>
