<!-- Generated by IcoMoon.io -->
<svg version="1.1" xmlns="http://www.w3.org/2000/svg" width="32" height="32" viewBox="0 0 32 32">
<title>wordpress-original</title>
<path fill="#337ba2" d="M10.814 30.308c0.020 0.255 0.007 0.518 0.075 0.759 0.029 0.102 0.225 0.157 0.345 0.234l0.156 0.1c-0.059 0.034-0.117 0.097-0.177 0.098-0.466 0.008-0.933 0.008-1.399 0-0.062-0.001-0.123-0.059-0.184-0.091 0.050-0.036 0.097-0.098 0.149-0.102 0.313-0.026 0.408-0.216 0.406-0.497-0.003-0.517-0.002-1.034 0.001-1.55 0.001-0.288-0.081-0.498-0.42-0.511-0.047-0.002-0.091-0.074-0.137-0.113 0.046-0.028 0.091-0.080 0.136-0.079 0.598 0.007 1.197-0.006 1.792 0.044 0.468 0.040 0.777 0.364 0.809 0.737 0.034 0.41-0.176 0.691-0.651 0.872l-0.182 0.068c0.306 0.29 0.578 0.573 0.879 0.818 0.134 0.109 0.323 0.174 0.497 0.204 0.348 0.059 0.537-0.090 0.547-0.436 0.015-0.557 0.008-1.115 0.003-1.673-0.002-0.256-0.112-0.424-0.397-0.438-0.054-0.003-0.105-0.063-0.157-0.097 0.060-0.035 0.12-0.1 0.179-0.1 0.608 0.005 1.219-0.014 1.823 0.040 1.031 0.091 1.605 0.949 1.303 1.897-0.184 0.578-0.624 0.905-1.19 0.943-0.989 0.067-1.985 0.054-2.977 0.061-0.079 0-0.177-0.085-0.236-0.156-0.229-0.271-0.444-0.553-0.667-0.829-0.068-0.084-0.143-0.16-0.214-0.24l-0.111 0.037zM14.094 28.841c0 0.696-0.008 1.371 0.009 2.045 0.003 0.104 0.102 0.26 0.195 0.297 0.364 0.145 0.953-0.092 1.117-0.46 0.22-0.493 0.247-1.012-0.051-1.48-0.294-0.462-0.783-0.416-1.271-0.401zM10.839 29.981c0.316 0.008 0.663 0.078 0.798-0.268 0.075-0.194 0.059-0.495-0.046-0.672-0.158-0.269-0.476-0.222-0.752-0.188l0 1.129z"></path>
<path fill="#515151" d="M24.192 29.837c0.209-0.045 0.415-0.038 0.549-0.134 0.113-0.080 0.141-0.279 0.227-0.471 0.050 0.089 0.096 0.135 0.098 0.181 0.006 0.345 0.008 0.69 0 1.035-0.001 0.054-0.056 0.107-0.087 0.16-0.034-0.029-0.085-0.050-0.1-0.087-0.183-0.443-0.182-0.443-0.711-0.396 0.077 0.346-0.191 0.787 0.223 1.015 0.211 0.116 0.551 0.093 0.797 0.017 0.21-0.064 0.37-0.293 0.553-0.45v0.774c-0.101 0.009-0.178 0.021-0.255 0.021-1.035 0.002-2.070-0.003-3.105 0.005-0.178 0.002-0.299-0.044-0.408-0.193-0.214-0.296-0.45-0.576-0.681-0.858-0.058-0.071-0.134-0.127-0.255-0.241 0 0.288-0.011 0.495 0.003 0.701 0.014 0.215 0.117 0.357 0.355 0.384 0.070 0.008 0.132 0.081 0.198 0.125-0.068 0.026-0.135 0.075-0.203 0.076-0.457 0.006-0.913 0.006-1.37 0-0.070-0.001-0.14-0.043-0.216-0.069l0.039-0.076c0.561-0.227 0.563-0.227 0.562-0.877-0-0.406-0.003-0.811-0.010-1.218-0.004-0.28-0.080-0.503-0.422-0.515-0.049-0.002-0.096-0.072-0.144-0.11 0.056-0.028 0.113-0.081 0.169-0.081 0.578 0.006 1.159-0.014 1.733 0.040 0.628 0.058 1.016 0.582 0.783 1.064-0.128 0.263-0.422 0.446-0.681 0.704 0.246 0.225 0.529 0.549 0.873 0.784 0.485 0.332 0.817 0.143 0.829-0.437 0.010-0.487-0.002-0.974-0.004-1.461-0.001-0.289-0.090-0.498-0.429-0.503-0.046-0.001-0.092-0.050-0.146-0.082 0.176-0.13 1.875-0.177 2.612-0.083l0.047 0.803-0.083 0.034c-0.172-0.179-0.15-0.55-0.505-0.551-0.271-0.001-0.542-0.030-0.833-0.047 0.001 0.339 0.001 0.648 0.001 1.016zM21.031 29.979c0.652 0.026 0.912-0.151 0.896-0.591-0.015-0.424-0.299-0.596-0.896-0.53v1.121z"></path>
<path fill="#3179a1" d="M2.889 30.171c0.249-0.737 0.495-1.474 0.751-2.209 0.035-0.101 0.122-0.184 0.184-0.276 0.062 0.095 0.147 0.181 0.182 0.285 0.233 0.68 0.454 1.363 0.681 2.045 0.018 0.055 0.041 0.108 0.094 0.242 0.232-0.703 0.447-1.327 0.641-1.957 0.067-0.218-0.020-0.376-0.274-0.404-0.084-0.010-0.165-0.043-0.263-0.069 0.169-0.187 1.489-0.201 1.707-0.027-0.059 0.028-0.106 0.068-0.154 0.070-0.412 0.016-0.604 0.274-0.721 0.63-0.314 0.953-0.635 1.903-0.954 2.854-0.033 0.099-0.075 0.195-0.113 0.291l-0.105 0.008-0.895-2.705-0.905 2.697-0.088 0.006c-0.046-0.1-0.103-0.198-0.137-0.302-0.292-0.895-0.58-1.792-0.869-2.688-0.124-0.385-0.248-0.767-0.753-0.792-0.033-0.002-0.063-0.057-0.095-0.087 0.039-0.032 0.079-0.093 0.119-0.094 0.568-0.006 1.137-0.006 1.704 0 0.039 0 0.078 0.062 0.118 0.095-0.042 0.032-0.080 0.077-0.127 0.092-0.455 0.137-0.488 0.19-0.345 0.631 0.181 0.558 0.367 1.114 0.551 1.671l0.067-0.008z"></path>
<path fill="#4d4d4d" d="M16.371 27.813c0.070-0.060 0.109-0.123 0.147-0.123 0.739 0.011 1.485-0.023 2.216 0.062 0.692 0.080 1.075 0.73 0.866 1.34-0.187 0.547-0.648 0.718-1.17 0.766-0.22 0.020-0.444 0.003-0.706 0.003 0.023 0.363 0.035 0.695 0.069 1.024 0.028 0.279 0.216 0.39 0.481 0.413 0.060 0.005 0.114 0.072 0.171 0.11-0.063 0.032-0.125 0.090-0.188 0.091-0.548 0.007-1.096 0.007-1.644 0-0.066-0.001-0.131-0.055-0.196-0.084 0.055-0.041 0.108-0.116 0.164-0.118 0.366-0.014 0.503-0.241 0.508-0.559 0.011-0.77 0.010-1.541 0-2.311-0.004-0.328-0.162-0.537-0.518-0.552-0.053-0.002-0.105-0.032-0.201-0.064zM17.752 29.489c0.671 0.070 0.926 0.006 1.087-0.292s0.163-0.61-0.029-0.892c-0.265-0.39-0.67-0.274-1.058-0.288v1.472z"></path>
<path fill="#3279a1" d="M7.769 31.616c-0.599-0.026-1.087-0.214-1.449-0.662-0.513-0.636-0.435-1.498 0.178-2.048 0.661-0.593 1.754-0.618 2.433-0.043 0.46 0.39 0.677 0.883 0.528 1.488-0.169 0.683-0.65 1.048-1.304 1.214-0.136 0.034-0.28 0.037-0.386 0.050zM8.905 30.053l-0.056-0.037c-0.037-0.177-0.059-0.36-0.114-0.531-0.161-0.493-0.496-0.736-0.991-0.737-0.492-0.001-0.824 0.244-0.985 0.742-0.143 0.443-0.125 0.881 0.096 1.295 0.329 0.617 1.207 0.733 1.637 0.184 0.2-0.256 0.279-0.608 0.413-0.916z"></path>
<path fill="#505050" d="M30.687 28.579l0.223-0.195v1.094l-0.065 0.049c-0.052-0.074-0.125-0.14-0.154-0.223-0.148-0.414-0.466-0.638-0.83-0.529-0.125 0.037-0.275 0.162-0.308 0.277-0.027 0.094 0.071 0.28 0.168 0.343 0.252 0.166 0.533 0.289 0.803 0.426 0.589 0.298 0.799 0.711 0.6 1.184-0.202 0.48-0.816 0.729-1.366 0.543-0.151-0.052-0.292-0.136-0.432-0.203l-0.214 0.282-0.095-0.029c0-0.369-0.002-0.738 0.004-1.108 0-0.036 0.054-0.070 0.082-0.106 0.045 0.055 0.112 0.102 0.132 0.165 0.131 0.414 0.383 0.689 0.831 0.735 0.256 0.026 0.506-0.005 0.595-0.297 0.081-0.267-0.105-0.417-0.305-0.531-0.22-0.125-0.452-0.227-0.677-0.343-0.099-0.051-0.2-0.101-0.288-0.166-0.314-0.232-0.438-0.566-0.345-0.904 0.083-0.303 0.381-0.559 0.749-0.57 0.273-0.008 0.549 0.063 0.89 0.105zM26.62 31.336c-0.041 0.082-0.064 0.152-0.107 0.205-0.026 0.032-0.089 0.063-0.122 0.052-0.032-0.010-0.066-0.073-0.066-0.114-0.005-0.325-0.005-0.65 0-0.974 0-0.040 0.044-0.078 0.069-0.118 0.046 0.029 0.111 0.048 0.134 0.090 0.042 0.078 0.052 0.174 0.089 0.256 0.167 0.37 0.505 0.602 0.893 0.546 0.162-0.023 0.363-0.146 0.443-0.285 0.108-0.185-0.021-0.376-0.203-0.481-0.245-0.142-0.498-0.269-0.752-0.393-0.574-0.28-0.817-0.743-0.611-1.18 0.204-0.434 0.832-0.615 1.357-0.389 0.064 0.027 0.125 0.063 0.175 0.088l0.27-0.221c0.028 0.079 0.046 0.107 0.047 0.134 0.002 0.304 0.001 0.608 0.001 0.912l-0.079 0.053c-0.053-0.067-0.126-0.127-0.155-0.203-0.143-0.383-0.37-0.595-0.703-0.555-0.156 0.019-0.355 0.126-0.431 0.255-0.113 0.189 0.050 0.34 0.221 0.432 0.241 0.13 0.487 0.248 0.732 0.371 0.605 0.303 0.817 0.724 0.608 1.206-0.203 0.469-0.837 0.712-1.379 0.519-0.141-0.050-0.272-0.13-0.429-0.206z"></path>
<path fill="#494949" d="M16.315 0.349c-6.695-0.119-12.29 5.313-12.291 11.901-0.002 6.777 5.335 12.185 12.019 12.175 6.622-0.010 11.983-5.397 11.983-12.042-0-6.537-5.336-11.921-11.711-12.034zM16.028 23.82c-6.332 0.002-11.424-5.132-11.423-11.517 0-6.22 5.171-11.37 11.418-11.372 6.358-0.002 11.424 5.163 11.422 11.647-0.002 6.121-5.202 11.241-11.417 11.242zM22.127 8.984c-0.248-0.409-0.554-0.807-0.695-1.253-0.16-0.508-0.293-1.086-0.208-1.595 0.144-0.864 0.806-1.292 1.703-1.374-4.906-4.553-12.616-2.924-15.456 2.024 1.094-0.051 2.137-0.117 3.182-0.131 0.198-0.003 0.525 0.164 0.572 0.319 0.104 0.346-0.187 0.467-0.496 0.491-0.325 0.026-0.651 0.050-1.029 0.079 1.248 3.716 2.476 7.377 3.734 11.123 0.090-0.147 0.127-0.188 0.143-0.236 0.691-2.064 1.385-4.126 2.058-6.196 0.062-0.189 0.031-0.439-0.037-0.633-0.356-1.028-0.783-2.033-1.095-3.073-0.214-0.712-0.497-1.173-1.339-1.091-0.143 0.014-0.318-0.295-0.479-0.454 0.194-0.116 0.387-0.329 0.583-0.332 1.714-0.026 3.429-0.026 5.143 0.002 0.197 0.003 0.389 0.222 0.584 0.341-0.17 0.155-0.317 0.388-0.516 0.449-0.319 0.096-0.673 0.078-1.055 0.112 1.249 3.714 2.472 7.353 3.738 11.121 0.567-1.881 1.093-3.608 1.605-5.34 0.457-1.546 0.185-2.989-0.642-4.351zM13.18 22.037c-0.023 0.067-0.024 0.141-0.042 0.252 2.114 0.586 4.188 0.544 6.31-0.171l-3.242-8.88c-1.038 3.016-2.033 5.908-3.026 8.8zM11.546 21.636c-1.639-4.495-3.255-8.931-4.885-13.399-2.204 4.304-0.527 10.871 4.885 13.399zM25.159 7.785c-0.067 0.748-0.020 1.582-0.235 2.341-0.506 1.788-1.124 3.545-1.719 5.307-0.647 1.915-1.32 3.821-1.982 5.732 3.109-1.843 4.818-4.563 5.090-8.139 0.155-2.035-0.547-4.853-1.154-5.241z"></path>
</svg>
